<?xml version="1.0" standalone="no"?>
<!DOCTYPE svg PUBLIC "-//W3C//DTD SVG 20010904//EN"
 "http://www.w3.org/TR/2001/REC-SVG-20010904/DTD/svg10.dtd">
<svg version="1.0" xmlns="http://www.w3.org/2000/svg"
 width="229.000000pt" height="227.000000pt" viewBox="0 0 229.000000 227.000000"
 preserveAspectRatio="xMidYMid meet">

<g transform="translate(0.000000,227.000000) scale(0.100000,-0.100000)"
fill="#000000" stroke="none">
<path d="M1050 2124 c-14 -2 -52 -9 -85 -15 -151 -26 -313 -101 -442 -204
-408 -326 -493 -920 -193 -1352 92 -131 264 -276 403 -338 203 -89 460 -111
672 -56 100 26 261 104 341 164 77 59 188 175 237 250 165 248 211 577 121
855 -112 345 -399 605 -747 676 -78 16 -261 28 -307 20z m-359 -630 l197 -197
-21 -46 c-32 -67 -31 -189 1 -254 35 -69 102 -132 170 -157 73 -28 177 -25
239 6 l41 21 199 -199 198 -199 -38 -34 c-49 -43 -170 -106 -272 -142 -75 -26
-90 -28 -250 -28 -151 0 -178 3 -245 24 -400 125 -650 481 -627 889 8 127 25
198 77 309 36 78 116 203 129 203 3 0 94 -88 202 -196z m537 -179 c151 -64
167 -273 27 -360 -135 -84 -305 12 -305 172 0 147 144 244 278 188z"/>
</g>
</svg>
